<?xml version="1.0" encoding="UTF-8"?>
<svg id="Layer_2" data-name="Layer 2" xmlns="http://www.w3.org/2000/svg" viewBox="0 0 389.03 469.15">
  <g id="Layer_1-2" data-name="Layer 1">
    <path d="M66.58.17c.92-.08,1.85-.13,2.77-.15,31.93-.72,58.76,17.64,69.26,47.85,4.38,12.59,3.67,24.74,3.71,37.81l.17,35.22c20.47-12.42,41.02-24.71,61.64-36.87l52.28-31.06c26.66-15.74,49.05-33.69,81.84-25.36,16.47,4.08,30.6,14.65,39.18,29.29,8.95,15.13,11.55,33.18,7.26,50.22-3.09,12.25-9.76,23.3-19.16,31.73-7.98,7.23-19.59,13.47-29.03,18.93l-29.54,17.11-116.52,67.76c-27.02,14.92-43.25,35.29-47.26,66.69-1.09,8.52-.71,19.49-.72,28.26v43.96c.04,23.37.04,40.52-15.36,59.79-40.68,50.89-119.72,26.02-126.46-37.91-.88-8.36-.57-16.61-.56-24.98l.03-36.6v-121.05s0-104.63,0-104.63l-.02-31.62c0-7.35-.24-15.44.7-22.64,1.61-12.74,6.71-24.78,14.75-34.79C29.14,10.22,45.35,2.35,66.58.17Z"/>
    <path d="M230.46,247.18l.71-.07c18.22-1.57,40.46,5.25,54.11,17.39,7.12,6.33,13.67,12.77,20.47,19.47l33.35,33.18,20.89,20.64c5.43,5.34,12.95,12.32,17.02,18.53,6.45,9.85,10.79,22.69,11.77,34.4,1.59,19.48-4.58,38.81-17.16,53.77-12.15,14.11-29.34,22.9-47.89,24.47-20.18,1.26-40.14-3.82-55.82-16.78-5.28-4.38-10.61-9.88-15.53-14.76l-24.18-23.99-29.91-29.52c-18.52-18.33-32.12-30.07-34.93-57.93-1.96-18.77,3.66-37.55,15.62-52.15,13.28-16.18,30.92-24.52,51.49-26.64Z"/>
  </g>
</svg>