<svg version="1.1" xmlns="http://www.w3.org/2000/svg" style="display: block;" viewBox="0 0 2048 2048" width="1024" height="1024" preserveAspectRatio="none">
<path transform="translate(0,0)" fill="rgb(255,255,255)" d="M 0 0 L 2048 0 L 2048 2048 L 0 2048 L 0 0 z"/>
<path transform="translate(0,0)" fill="rgb(0,0,0)" d="M 768.95 538.402 C 770.795 538.233 772.646 538.132 774.499 538.099 C 838.359 536.663 892.012 573.386 913.013 633.792 C 921.766 658.971 920.348 683.263 920.426 709.42 L 920.759 779.861 C 961.697 755.023 1002.79 730.444 1044.04 706.125 L 1148.6 643.997 C 1201.92 612.517 1246.7 576.621 1312.27 593.267 C 1345.22 601.437 1373.48 622.564 1390.63 651.857 C 1408.52 682.114 1413.74 718.212 1405.14 752.293 C 1398.96 776.792 1385.62 798.89 1366.81 815.759 C 1350.86 830.216 1327.64 842.694 1308.76 853.61 L 1249.67 887.827 L 1016.64 1023.34 C 962.593 1053.19 930.132 1093.92 922.115 1156.72 C 919.94 1173.76 920.687 1195.71 920.68 1213.24 L 920.681 1301.16 C 920.758 1347.9 920.767 1382.21 889.951 1420.75 C 808.59 1522.52 650.514 1472.79 637.037 1344.93 C 635.273 1328.21 635.906 1311.71 635.92 1294.97 L 635.989 1221.77 L 635.99 979.665 L 635.999 770.398 L 635.953 707.165 C 635.953 692.465 635.482 676.289 637.354 661.88 C 640.572 636.406 650.781 612.32 666.849 592.294 C 694.079 558.496 726.502 542.763 768.95 538.402 z"/>
<path transform="translate(0,0)" fill="rgb(0,0,0)" d="M 1096.72 1032.41 L 1098.14 1032.27 C 1134.59 1029.14 1179.07 1042.77 1206.37 1067.04 C 1220.62 1079.71 1233.72 1092.58 1247.31 1105.99 L 1314.01 1172.36 L 1355.78 1213.63 C 1366.64 1224.31 1381.67 1238.27 1389.81 1250.69 C 1402.72 1270.39 1411.4 1296.06 1413.36 1319.49 C 1416.54 1358.46 1404.2 1397.11 1379.03 1427.03 C 1354.74 1455.25 1320.35 1472.83 1283.25 1475.98 C 1242.88 1478.49 1202.98 1468.35 1171.62 1442.41 C 1161.05 1433.66 1150.4 1422.65 1140.55 1412.89 L 1092.2 1364.91 L 1032.37 1305.87 C 995.325 1269.22 968.128 1245.74 962.502 1190 C 958.574 1152.46 969.821 1114.9 993.739 1085.7 C 1020.29 1053.33 1055.58 1036.65 1096.72 1032.41 z"/>
</svg>